<svg width="33" height="40" viewBox="0 0 33 40" fill="none" xmlns="http://www.w3.org/2000/svg">
<path d="M24.0015 16.4612C22.9274 16.7289 22.2685 17.8519 22.5267 18.9655L22.1098 17.1733C21.8515 16.0596 20.7684 15.3765 19.6943 15.6442C18.6201 15.912 17.9613 17.0349 18.2195 18.1486L17.7748 16.238C17.5165 15.1243 16.4335 14.4412 15.3593 14.709C14.2852 14.9768 13.6263 16.0997 13.8846 17.2134L12.2493 10.2045C11.991 9.09087 10.9079 8.40776 9.83378 8.67553C8.75963 8.94329 8.10075 10.0662 8.35902 11.1799L11.6745 25.3731L8.72221 22.1598C7.95915 21.3315 6.69183 21.2975 5.89293 22.0887C5.09403 22.8798 5.06125 24.1938 5.82431 25.0221L14.9188 34.9253L14.9674 34.9112C16.886 36.9535 19.7583 37.9339 22.6281 37.2138C26.9447 36.1314 29.6016 31.6231 28.5592 27.1425L27.6127 23.09L27.2534 21.5465L26.4236 17.9864C26.1587 16.8765 25.0772 16.1881 24.0015 16.4612Z" stroke="white" stroke-width="1.5" stroke-miterlimit="10" stroke-linecap="round" stroke-linejoin="round"/>
<path d="M15.0672 22.1129L13.6506 16.2" stroke="white" stroke-width="1.5" stroke-miterlimit="10" stroke-linecap="round" stroke-linejoin="round"/>
<path d="M19.1022 21.9158L17.969 17.205" stroke="white" stroke-width="1.5" stroke-miterlimit="10" stroke-linecap="round" stroke-linejoin="round"/>
<path d="M23.3418 22.3998L22.1877 17.6249" stroke="white" stroke-width="1.5" stroke-miterlimit="10" stroke-linecap="round" stroke-linejoin="round"/>
<path d="M8.60216 4.43779L7.80249 1" stroke="white" stroke-width="1.5" stroke-miterlimit="10" stroke-linecap="round" stroke-linejoin="round"/>
<path d="M5.42444 7.50728L2.51392 5.67145" stroke="white" stroke-width="1.5" stroke-miterlimit="10" stroke-linecap="round" stroke-linejoin="round"/>
<path d="M4.30959 12.2771L0.999898 13.108" stroke="white" stroke-width="1.5" stroke-miterlimit="10" stroke-linecap="round" stroke-linejoin="round"/>
<path d="M19.6651 8.43102L16.3572 9.25565" stroke="white" stroke-width="1.5" stroke-miterlimit="10" stroke-linecap="round" stroke-linejoin="round"/>
<path d="M12.8009 5.60908L14.5716 2.59147" stroke="white" stroke-width="1.5" stroke-miterlimit="10" stroke-linecap="round" stroke-linejoin="round"/>
</svg>
