<svg width="24" height="31" viewBox="0 0 24 31" fill="none" xmlns="http://www.w3.org/2000/svg">
<path d="M1 12C1 5.92487 5.92487 1 12 1V1C18.0751 1 23 5.92487 23 12V27.3636C23 28.8197 21.8197 30 20.3636 30H3.63636C2.18034 30 1 28.8197 1 27.3636V12Z" stroke="black" stroke-width="2" stroke-linejoin="round"/>
<path d="M12 20.5C12 17.4624 14.4624 15 17.5 15V15C20.5376 15 23 17.4624 23 20.5V27.5C23 28.8807 21.8807 30 20.5 30H12V20.5Z" stroke="black" stroke-width="2" stroke-linejoin="round"/>
<path d="M6 16.5C6 11.8056 9.80558 8 14.5 8V8C19.1944 8 23 11.8056 23 16.5V28C23 29.1046 22.1046 30 21 30H6V16.5Z" stroke="black" stroke-width="2" stroke-linejoin="round"/>
</svg>
